<svg xmlns="http://www.w3.org/2000/svg" width="1200" height="320" viewBox="0 0 1200 320" role="img" aria-labelledby="title desc"><title id="title">DevBoard</title><desc id="desc">DevBoard logo — your development workspace.</desc><defs><linearGradient id="d" x1="0" y1="0" x2="1" y2="1"><stop stop-color="#00d8ff"/><stop offset=".48" stop-color="#2477ff"/><stop offset="1" stop-color="#d61cff"/></linearGradient><linearGradient id="orange" x1="0" y1="0" x2="0" y2="1"><stop stop-color="#ffc51f"/><stop offset="1" stop-color="#ff296d"/></linearGradient><filter id="shadow" x="-30%" y="-30%" width="160%" height="160%"><feDropShadow dx="0" dy="12" stdDeviation="12" flood-color="#0b1735" flood-opacity=".22"/></filter></defs><rect width="1200" height="320" rx="34" fill="#fff"/><g transform="translate(56 38)" filter="url(#shadow)"><rect x="15" y="55" width="105" height="174" rx="22" fill="#0bd6df"/><rect x="1" y="87" width="105" height="150" rx="22" fill="url(#orange)"/><path d="M78 10h96c80 0 142 45 142 112s-62 112-142 112H78V10zm58 54v116h44c45 0 78-21 78-58s-33-58-78-58h-44z" fill="url(#d)"/><path d="M137 77h67c37 0 64 18 64 46 0 30-27 48-64 48h-67l-23 23V99l23-22z" fill="#07142f"/><path d="M160 108l24 22-24 22" fill="none" stroke="#fff" stroke-width="14" stroke-linecap="round" stroke-linejoin="round"/><path d="M198 151h30" stroke="#fff" stroke-width="12" stroke-linecap="round"/></g><g font-family="Inter,Segoe UI,Arial,sans-serif"><text x="400" y="147" font-size="92" font-weight="800" fill="#07142f">DevBoard</text><text x="405" y="210" font-size="37" font-weight="500" fill="#7283a6">Your development workspace.</text></g></svg>